STARTFONT 2.1
FONT -AmsteinGraphics-DMCP-Normal-I-Normal--52-520-36-38-P-129-ISO10646-1
SIZE 9 173 173
FONTBOUNDINGBOX 20 31 -2 -6
STARTPROPERTIES 30
FAMILY_NAME "DMCP"
DEFAULT_CHAR -1
FOUNDRY "AmsteinGraphics"
COPYRIGHT "Copyright (c) 2022 SwissMicros"
CODEPAGE "MS Windows 1252 Western (ANSI)"
ENC_MODE 2
ENC_ID 1
CREATION_YEAR 2022
WEIGHT_NAME "Normal"
SLANT "I"
SETWIDTH_NAME "Normal"
SPACING "P"
WEIGHT 400
HI_VERSION 1
MAC_FONT_STYLE 2
CP_RANGE_1 65535
CP_RANGE_2 65535
FONTNAME_REGISTRY "-"
CHARSET_REGISTRY "ISO10646"
CHARSET_ENCODING "1"
BREAK_CHAR 32
PIXEL_SIZE 21
POINT_SIZE 90
FONT_ASCENT 21
FONT_DESCENT 6
RESOLUTION_X 173
RESOLUTION_Y 173
AVERAGE_WIDTH 129
X_HEIGHT 15
CAP_HEIGHT 20
ENDPROPERTIES
CHARS 289
STARTCHAR space.uni0020
ENCODING 32
SWIDTH 582 0
DWIDTH 16 0
BBX 0 0 0 0
BITMAP
ENDCHAR
STARTCHAR exclam.uni0021
ENCODING 33
SWIDTH 582 0
DWIDTH 16 0
BBX 7 20 5 0
BITMAP
0E00
0E00
1E00
1C00
1C00
1C00
1C00
3800
3800
3800
3800
3000
3000
7000
0000
0000
0000
E000
E000
E000
ENDCHAR
STARTCHAR quotedbl.uni0022
ENCODING 34
SWIDTH 582 0
DWIDTH 16 0
BBX 7 7 5 13
BITMAP
C600
C600
C600
C600
C600
C600
C600
ENDCHAR
STARTCHAR numbersign.uni0023
ENCODING 35
SWIDTH 582 0
DWIDTH 16 0
BBX 16 18 0 0
BITMAP
018C
018C
0318
0318
0318
3FFF
3FFF
0630
0630
0C60
0C60
FFFC
FFFC
18C0
18C0
18C0
3180
3180
ENDCHAR
STARTCHAR dollar.uni0024
ENCODING 36
SWIDTH 582 0
DWIDTH 16 0
BBX 12 24 1 -4
BITMAP
0100
0100
0100
0FC0
1FF0
3A30
7200
7200
7200
7200
3E00
1F80
07C0
04E0
04E0
04E0
04E0
85C0
FF80
7F00
0800
0800
0800
0800
ENDCHAR
STARTCHAR percent.uni0025
ENCODING 37
SWIDTH 582 0
DWIDTH 16 0
BBX 15 20 0 0
BITMAP
3C00
7E00
E700
C300
C300
E700
7E0C
3C38
0060
01C0
0700
0C00
3878
60FC
01CE
0186
0186
01CE
00FC
0078
ENDCHAR
STARTCHAR ampersand.uni0026
ENCODING 38
SWIDTH 582 0
DWIDTH 16 0
BBX 15 20 0 0
BITMAP
01E0
07F0
0710
0E00
0E00
0E00
0E00
0700
0F00
1F00
338E
738E
E3CC
E1DC
E1D8
E0F8
F0F0
78F0
7FF0
1F78
ENDCHAR
STARTCHAR quotesingle.uni0027
ENCODING 39
SWIDTH 582 0
DWIDTH 16 0
BBX 2 7 7 13
BITMAP
C000
C000
C000
C000
C000
C000
C000
ENDCHAR
STARTCHAR parenleft.uni0028
ENCODING 40
SWIDTH 582 0
DWIDTH 16 0
BBX 9 24 5 -3
BITMAP
0180
0300
0600
0E00
1C00
1C00
3800
3800
7000
7000
7000
E000
E000
E000
E000
E000
E000
E000
E000
6000
6000
7000
3000
3000
ENDCHAR
STARTCHAR parenright.uni0029
ENCODING 41
SWIDTH 582 0
DWIDTH 16 0
BBX 9 24 2 -3
BITMAP
0600
0600
0700
0700
0300
0380
0380
0380
0380
0380
0380
0380
0780
0700
0700
0700
0E00
0E00
1C00
1C00
3800
3000
6000
C000
ENDCHAR
STARTCHAR asterisk.uni002A
ENCODING 42
SWIDTH 582 0
DWIDTH 16 0
BBX 11 12 2 8
BITMAP
0400
0400
C460
E4E0
3580
0E00
0E00
3580
E4E0
C460
0400
0400
ENDCHAR
STARTCHAR plus.uni002B
ENCODING 43
SWIDTH 582 0
DWIDTH 16 0
BBX 14 14 1 1
BITMAP
0300
0300
0300
0300
0300
0300
FFFC
FFFC
0300
0300
0300
0300
0300
0300
ENDCHAR
STARTCHAR comma.uni002C
ENCODING 44
SWIDTH 582 0
DWIDTH 16 0
BBX 5 8 3 -4
BITMAP
3800
3800
3800
3800
7000
6000
6000
C000
ENDCHAR
STARTCHAR hyphen.uni002D
ENCODING 45
SWIDTH 582 0
DWIDTH 16 0
BBX 7 2 4 6
BITMAP
FE00
FE00
ENDCHAR
STARTCHAR period.uni002E
ENCODING 46
SWIDTH 582 0
DWIDTH 16 0
BBX 3 4 5 0
BITMAP
E000
E000
E000
E000
ENDCHAR
STARTCHAR slash.uni002F
ENCODING 47
SWIDTH 582 0
DWIDTH 16 0
BBX 13 22 0 -2
BITMAP
0018
0038
0030
0070
0060
00E0
00C0
01C0
0180
0380
0300
0700
0600
0E00
0C00
1C00
1800
3800
3000
7000
6000
E000
ENDCHAR
STARTCHAR zero.uni0030
ENCODING 48
SWIDTH 582 0
DWIDTH 16 0
BBX 13 20 1 0
BITMAP
03C0
0FF0
1C70
1838
3838
3078
70F8
71B8
71B8
E338
E638
EC70
EC70
F870
F060
E0E0
E0C0
71C0
7F80
3E00
ENDCHAR
STARTCHAR one.uni0031
ENCODING 49
SWIDTH 582 0
DWIDTH 16 0
BBX 11 20 2 0
BITMAP
07C0
1FC0
19C0
01C0
01C0
0380
0380
0380
0380
0380
0700
0700
0700
0700
0700
0F00
0E00
0E00
FFE0
FFE0
ENDCHAR
STARTCHAR two.uni0032
ENCODING 50
SWIDTH 582 0
DWIDTH 16 0
BBX 14 20 0 0
BITMAP
07E0
1FF8
1C38
101C
001C
001C
003C
003C
0078
0078
00F0
01E0
03C0
0780
0F00
1E00
3C00
7800
FFF0
FFF0
ENDCHAR
STARTCHAR three.uni0033
ENCODING 51
SWIDTH 582 0
DWIDTH 16 0
BBX 14 20 0 0
BITMAP
03F0
0FF8
183C
001C
001C
001C
0038
0078
07E0
07E0
0070
0038
0038
0038
0038
0078
0070
C1E0
FFC0
7F00
ENDCHAR
STARTCHAR four.uni0034
ENCODING 52
SWIDTH 582 0
DWIDTH 16 0
BBX 13 20 0 0
BITMAP
0038
0078
00F8
01F0
01F0
0370
0770
0EF0
0CE0
18E0
38E0
70E0
E1E0
FFF8
FFF8
01C0
01C0
0380
0380
0380
ENDCHAR
STARTCHAR five.uni0035
ENCODING 53
SWIDTH 582 0
DWIDTH 16 0
BBX 14 20 0 0
BITMAP
0FFC
0FFC
0E00
0E00
1C00
1C00
1C00
1FC0
1FF0
10F0
0078
0038
0038
0038
0038
0070
00F0
C1E0
FFC0
7F00
ENDCHAR
STARTCHAR six.uni0036
ENCODING 54
SWIDTH 582 0
DWIDTH 16 0
BBX 13 20 1 0
BITMAP
01F0
07F8
0E10
1C00
3800
3800
7000
73C0
7FE0
68F0
F070
F070
E070
E070
E070
E0E0
E0E0
71C0
7F80
1F00
ENDCHAR
STARTCHAR seven.uni0037
ENCODING 55
SWIDTH 582 0
DWIDTH 16 0
BBX 13 20 2 0
BITMAP
7FF8
7FF8
0070
00F0
00E0
01E0
01C0
03C0
0380
0780
0700
0F00
0E00
1E00
1C00
3C00
3800
7800
7000
F000
ENDCHAR
STARTCHAR eight.uni0038
ENCODING 56
SWIDTH 582 0
DWIDTH 16 0
BBX 14 20 1 0
BITMAP
03E0
0FF8
1E3C
3C1C
381C
381C
3838
1C70
0FE0
1FE0
3870
7038
E038
E038
E038
E038
E070
70F0
7FE0
1F80
ENDCHAR
STARTCHAR nine.uni0039
ENCODING 57
SWIDTH 582 0
DWIDTH 16 0
BBX 13 20 1 0
BITMAP
07C0
0FF0
1C70
3838
3838
7038
7038
7038
7078
7078
78B0
3FF0
1E70
0060
00E0
00C0
01C0
8380
FF00
FC00
ENDCHAR
STARTCHAR colon.uni003A
ENCODING 58
SWIDTH 582 0
DWIDTH 16 0
BBX 6 14 4 0
BITMAP
1C00
1C00
1C00
1C00
0000
0000
0000
0000
0000
0000
E000
E000
E000
E000
ENDCHAR
STARTCHAR semicolon.uni003B
ENCODING 59
SWIDTH 582 0
DWIDTH 16 0
BBX 7 18 3 -4
BITMAP
0E00
0E00
0E00
0E00
0000
0000
0000
0000
0000
0000
3800
3800
3800
3800
7000
6000
6000
C000
ENDCHAR
STARTCHAR less.uni003C
ENCODING 60
SWIDTH 582 0
DWIDTH 16 0
BBX 13 13 1 2
BITMAP
0008
0078
01F8
07C0
3F00
F800
E000
F800
3F00
07C0
01F8
0078
0008
ENDCHAR
STARTCHAR equal.uni003D
ENCODING 61
SWIDTH 582 0
DWIDTH 16 0
BBX 13 7 1 5
BITMAP
FFF8
FFF8
0000
0000
0000
FFF8
FFF8
ENDCHAR
STARTCHAR greater.uni003E
ENCODING 62
SWIDTH 582 0
DWIDTH 16 0
BBX 13 13 1 2
BITMAP
8000
F000
FC00
1F00
07E0
00F8
0038
00F8
07E0
1F00
FC00
F000
8000
ENDCHAR
STARTCHAR question.uni003F
ENCODING 63
SWIDTH 582 0
DWIDTH 16 0
BBX 10 20 4 0
BITMAP
1F00
7F80
C3C0
81C0
01C0
01C0
0380
0700
0E00
1C00
3800
7000
7000
7000
7000
0000
0000
E000
E000
E000
ENDCHAR
STARTCHAR at.uni0040
ENCODING 64
SWIDTH 582 0
DWIDTH 16 0
BBX 16 23 0 -5
BITMAP
00F8
03FE
0F0E
0C07
1803
3003
307B
61FF
638F
6306
C606
C606
C606
C60E
C71C
C3FC
C1EC
6000
6000
7000
3C20
1FF0
07E0
ENDCHAR
STARTCHAR A.uni0041
ENCODING 65
SWIDTH 582 0
DWIDTH 16 0
BBX 15 20 -1 0
BITMAP
0078
0078
00F8
00F8
01D8
01D8
039C
039C
079C
071C
071C
0E1C
0E1C
1FFC
1FFC
381E
380E
780E
700E
F00E
ENDCHAR
STARTCHAR B.uni0042
ENCODING 66
SWIDTH 582 0
DWIDTH 16 0
BBX 15 20 0 0
BITMAP
0FF8
0FFC
1E1E
1C0E
1C0E
1C0E
1C1C
3C3C
3FF0
3FF0
3838
381C
781C
701C
701C
701C
7038
F078
FFF0
FFC0
ENDCHAR
STARTCHAR C.uni0043
ENCODING 67
SWIDTH 582 0
DWIDTH 16 0
BBX 14 20 1 0
BITMAP
01F8
07FC
0F0C
1C04
3C00
3800
7000
7000
7000
E000
E000
E000
E000
E000
E000
E000
F020
7860
3FE0
1F80
ENDCHAR
STARTCHAR D.uni0044
ENCODING 68
SWIDTH 582 0
DWIDTH 16 0
BBX 14 20 0 0
BITMAP
0FC0
0FF0
1E78
1C38
1C1C
1C1C
1C1C
3C1C
381C
381C
381C
3838
7838
7038
7038
7070
70E0
F1E0
FFC0
FF00
ENDCHAR
STARTCHAR E.uni0045
ENCODING 69
SWIDTH 582 0
DWIDTH 16 0
BBX 15 20 1 0
BITMAP
0FFE
0FFE
1E00
1C00
1C00
1C00
1C00
3C00
3FF8
3FF8
3800
3800
7800
7000
7000
7000
7000
F000
FFF0
FFF0
ENDCHAR
STARTCHAR F.uni0046
ENCODING 70
SWIDTH 582 0
DWIDTH 16 0
BBX 15 20 1 0
BITMAP
0FFE
0FFE
1E00
1C00
1C00
1C00
1C00
3C00
3FF8
3FF0
3800
3800
7800
7000
7000
7000
7000
F000
E000
E000
ENDCHAR
STARTCHAR G.uni0047
ENCODING 71
SWIDTH 582 0
DWIDTH 16 0
BBX 14 20 1 0
BITMAP
01F8
07FC
0F0C
1C04
3800
3800
7000
7000
7000
F000
E0F8
E0F8
E078
E070
E070
E070
F070
78F0
3FE0
1F80
ENDCHAR
STARTCHAR H.uni0048
ENCODING 72
SWIDTH 582 0
DWIDTH 16 0
BBX 16 20 0 0
BITMAP
0E07
0E07
1E0F
1C0E
1C0E
1C0E
1C0E
3C1E
3FFC
3FFC
381C
381C
783C
7038
7038
7038
7038
F078
E070
E070
ENDCHAR
STARTCHAR I.uni0049
ENCODING 73
SWIDTH 582 0
DWIDTH 16 0
BBX 14 20 1 0
BITMAP
0FFC
1FFC
01C0
01C0
01C0
01C0
0380
0380
0380
0380
0380
0780
0700
0700
0700
0700
0700
0E00
FFE0
FFC0
ENDCHAR
STARTCHAR J.uni004A
ENCODING 74
SWIDTH 582 0
DWIDTH 16 0
BBX 14 20 0 0
BITMAP
03FC
03FC
003C
0038
0038
0038
0038
0038
0070
0070
0070
0070
0070
00F0
00E0
00E0
81E0
C1C0
FF80
7F00
ENDCHAR
STARTCHAR K.uni004B
ENCODING 75
SWIDTH 582 0
DWIDTH 16 0
BBX 16 20 0 0
BITMAP
0E07
0E0E
1E1C
1C38
1C70
1CE0
1DC0
3F80
3F80
3F80
3F80
39C0
79C0
71E0
70E0
70F0
7070
F078
E038
E038
ENDCHAR
STARTCHAR L.uni004C
ENCODING 76
SWIDTH 582 0
DWIDTH 16 0
BBX 12 20 1 0
BITMAP
0E00
0E00
1E00
1C00
1C00
1C00
1C00
3C00
3800
3800
3800
3800
7800
7000
7000
7000
7000
F000
FFF0
FFF0
ENDCHAR
STARTCHAR M.uni004D
ENCODING 77
SWIDTH 582 0
DWIDTH 16 0
BBX 17 20 -1 0
BITMAP
0E078000
0E078000
1E0F8000
1F0B0000
1B1F0000
1B170000
1B370000
3B270000
3B6E0000
394E0000
31CE0000
31CE0000
718E0000
701C0000
701C0000
701C0000
701C0000
E03C0000
E0380000
E0380000
ENDCHAR
STARTCHAR N.uni004E
ENCODING 78
SWIDTH 582 0
DWIDTH 16 0
BBX 16 20 0 0
BITMAP
0E07
0E07
1F0F
1F0E
1F0E
1F0E
1F0E
3F9E
399C
399C
399C
399C
79FC
70F8
70F8
70F8
70F8
F0F8
E070
E070
ENDCHAR
STARTCHAR O.uni004F
ENCODING 79
SWIDTH 582 0
DWIDTH 16 0
BBX 14 20 1 0
BITMAP
03E0
0FF8
1E38
1C1C
381C
381C
701C
701C
701C
F01C
E03C
E038
E038
E038
E070
E070
E0E0
71E0
7FC0
1F00
ENDCHAR
STARTCHAR P.uni0050
ENCODING 80
SWIDTH 582 0
DWIDTH 16 0
BBX 15 20 1 0
BITMAP
0FF0
0FFC
1E1C
1C0E
1C0E
1C0E
1C0E
3C0E
381C
3838
3FF0
3FE0
7800
7000
7000
7000
7000
F000
E000
E000
ENDCHAR
STARTCHAR Q.uni0051
ENCODING 81
SWIDTH 582 0
DWIDTH 16 0
BBX 14 24 1 -4
BITMAP
03E0
0FF8
1E38
1C1C
381C
381C
701C
701C
701C
F01C
E038
E038
E038
E038
E070
E070
E0E0
71E0
7FC0
1F00
0380
0380
01C0
0080
ENDCHAR
STARTCHAR R.uni0052
ENCODING 82
SWIDTH 582 0
DWIDTH 16 0
BBX 14 20 0 0
BITMAP
0FE0
0FF8
1E3C
1C1C
1C1C
1C1C
1C1C
3C38
3870
3FE0
3FC0
39E0
78E0
70E0
70F0
7070
7070
F070
E038
E038
ENDCHAR
STARTCHAR S.uni0053
ENCODING 83
SWIDTH 582 0
DWIDTH 16 0
BBX 14 20 0 0
BITMAP
03F8
07FC
1E0C
1C04
3800
3800
3800
3C00
1F80
0FE0
03F0
00F8
0038
0038
0038
0038
8070
E0F0
FFC0
7F00
ENDCHAR
STARTCHAR T.uni0054
ENCODING 84
SWIDTH 582 0
DWIDTH 16 0
BBX 15 20 2 0
BITMAP
FFFE
FFFE
0380
0380
0380
0700
0700
0700
0700
0700
0700
0E00
0E00
0E00
0E00
0E00
0E00
1C00
1C00
1C00
ENDCHAR
STARTCHAR U.uni0055
ENCODING 85
SWIDTH 582 0
DWIDTH 16 0
BBX 15 20 1 0
BITMAP
1C0E
1C0E
1C0E
3C1C
381C
381C
381C
381C
703C
7038
7038
7038
F038
E078
E070
E070
E070
F0E0
7FC0
1F00
ENDCHAR
STARTCHAR V.uni0056
ENCODING 86
SWIDTH 582 0
DWIDTH 16 0
BBX 14 20 3 0
BITMAP
E03C
E038
E038
E070
E070
70F0
70E0
71E0
71C0
73C0
7380
7380
7700
7700
7F00
7E00
3E00
3C00
3C00
3800
ENDCHAR
STARTCHAR W.uni0057
ENCODING 87
SWIDTH 582 0
DWIDTH 16 0
BBX 16 20 1 0
BITMAP
7007
700F
700E
700E
701E
739C
739C
F7BC
E7B8
EFB8
EDB8
EDF0
FDF0
F9F0
F9E0
F1E0
F1E0
F1E0
E1C0
E1C0
ENDCHAR
STARTCHAR X.uni0058
ENCODING 88
SWIDTH 582 0
DWIDTH 16 0
BBX 19 20 -2 0
BITMAP
0781E000
0383C000
03878000
03CF0000
01CE0000
01DE0000
00FC0000
00F80000
00F00000
00700000
00F00000
01F00000
03F80000
07B80000
0F380000
0F1C0000
1E1C0000
3C1E0000
780E0000
F00E0000
ENDCHAR
STARTCHAR Y.uni0059
ENCODING 89
SWIDTH 582 0
DWIDTH 16 0
BBX 14 20 3 0
BITMAP
E03C
7078
7070
70F0
39E0
39C0
3FC0
1F80
1F00
1F00
0E00
0E00
0E00
1E00
1C00
1C00
1C00
1C00
3800
3800
ENDCHAR
STARTCHAR Z.uni005A
ENCODING 90
SWIDTH 582 0
DWIDTH 16 0
BBX 16 20 0 0
BITMAP
0FFF
0FFF
000E
001E
003C
0078
0070
00F0
01E0
03C0
03C0
0780
0F00
0E00
1E00
3C00
7800
7000
FFF8
FFF8
ENDCHAR
STARTCHAR bracketleft.uni005B
ENCODING 91
SWIDTH 582 0
DWIDTH 16 0
BBX 10 24 3 -3
BITMAP
07C0
07C0
0F00
0E00
0E00
0E00
0E00
1E00
1C00
1C00
1C00
1C00
3800
3800
3800
3800
3800
7000
7000
7000
7000
7000
F800
F800
ENDCHAR
STARTCHAR backslash.uni005C
ENCODING 92
SWIDTH 582 0
DWIDTH 16 0
BBX 6 22 5 -2
BITMAP
E000
E000
E000
F000
7000
7000
7000
7000
7000
7000
7000
3800
3800
3800
3800
3800
3800
3800
1C00
1C00
1C00
1C00
ENDCHAR
STARTCHAR bracketright.uni005D
ENCODING 93
SWIDTH 582 0
DWIDTH 16 0
BBX 10 24 2 -3
BITMAP
0FC0
0FC0
0380
0380
0380
0380
0380
0700
0700
0700
0700
0700
0E00
0E00
0E00
0E00
1E00
1C00
1C00
1C00
1C00
3C00
F800
F800
ENDCHAR
STARTCHAR asciicircum.uni005E
ENCODING 94
SWIDTH 582 0
DWIDTH 16 0
BBX 14 7 1 13
BITMAP
0780
0780
0FC0
1CE0
3870
7038
E01C
ENDCHAR
STARTCHAR underscore.uni005F
ENCODING 95
SWIDTH 582 0
DWIDTH 16 0
BBX 13 2 0 -6
BITMAP
FFF8
FFF8
ENDCHAR
STARTCHAR grave.uni0060
ENCODING 96
SWIDTH 582 0
DWIDTH 16 0
BBX 5 5 6 17
BITMAP
E000
6000
3000
3000
1800
ENDCHAR
STARTCHAR a.uni0061
ENCODING 97
SWIDTH 582 0
DWIDTH 16 0
BBX 13 15 1 0
BITMAP
07E0
1FF0
1078
0038
0038
0038
0FF8
3FF0
7070
E070
E0F0
E0E0
F1E0
7EE0
3CE0
ENDCHAR
STARTCHAR b.uni0062
ENCODING 98
SWIDTH 582 0
DWIDTH 16 0
BBX 13 21 1 0
BITMAP
0E00
0E00
0E00
1C00
1C00
1C00
1DE0
1FF0
3E78
3C38
3838
3838
3838
7838
7038
7070
7070
70E0
F9E0
EFC0
EF00
ENDCHAR
STARTCHAR c.uni0063
ENCODING 99
SWIDTH 582 0
DWIDTH 16 0
BBX 12 15 2 0
BITMAP
07E0
1FF0
3C10
3800
7000
7000
E000
E000
E000
E000
E000
E000
70C0
7F80
1F00
ENDCHAR
STARTCHAR d.uni0064
ENCODING 100
SWIDTH 582 0
DWIDTH 16 0
BBX 14 21 2 0
BITMAP
001C
001C
003C
0038
0038
0038
0F38
1FF8
3CF0
38F0
7070
7070
E0F0
E0E0
E0E0
E0E0
E0E0
E1E0
F3C0
7FC0
3DC0
ENDCHAR
STARTCHAR e.uni0065
ENCODING 101
SWIDTH 582 0
DWIDTH 16 0
BBX 13 15 1 0
BITMAP
07C0
0FF0
1C70
3838
7038
7038
FFF8
FFF8
E000
E000
E000
E020
70C0
7FC0
1F00
ENDCHAR
STARTCHAR f.uni0066
ENCODING 102
SWIDTH 582 0
DWIDTH 16 0
BBX 12 21 4 0
BITMAP
01F0
07F0
0700
0600
0E00
0E00
FFE0
FFE0
0E00
1C00
1C00
1C00
1C00
3C00
3800
3800
3800
3800
7800
7000
7000
ENDCHAR
STARTCHAR g.uni0067
ENCODING 103
SWIDTH 582 0
DWIDTH 16 0
BBX 13 21 1 -6
BITMAP
0738
1FB8
3CF8
3870
7070
7070
E070
E070
E0F0
E0E0
E0E0
E1E0
F1E0
7EE0
3DE0
01C0
01C0
03C0
8380
FF00
7E00
ENDCHAR
STARTCHAR h.uni0068
ENCODING 104
SWIDTH 582 0
DWIDTH 16 0
BBX 13 21 1 0
BITMAP
0E00
0E00
0E00
1C00
1C00
1C00
1CE0
1FF0
3E78
3C38
3838
3838
3838
7070
7070
7070
7070
7070
F0E0
E0E0
E0E0
ENDCHAR
STARTCHAR i.uni0069
ENCODING 105
SWIDTH 582 0
DWIDTH 16 0
BBX 13 21 1 0
BITMAP
00E0
00E0
00E0
0000
0000
0000
0FC0
0FC0
01C0
0380
0380
0380
0380
0380
0380
0780
0700
0700
0700
FFF8
FFF8
ENDCHAR
STARTCHAR j.uni006A
ENCODING 106
SWIDTH 582 0
DWIDTH 16 0
BBX 13 27 0 -6
BITMAP
0038
0038
0038
0000
0000
0000
07F0
07F0
00F0
00E0
00E0
00E0
00E0
00E0
01C0
01C0
01C0
01C0
01C0
0380
0380
0380
0380
0780
0700
FE00
FC00
ENDCHAR
STARTCHAR k.uni006B
ENCODING 107
SWIDTH 582 0
DWIDTH 16 0
BBX 13 21 1 0
BITMAP
0E00
0E00
0E00
1C00
1C00
1C00
1C38
1C70
38E0
39C0
3B80
3F00
3F00
7F00
7380
7380
71C0
71C0
F0E0
E0E0
E070
ENDCHAR
STARTCHAR l.uni006C
ENCODING 108
SWIDTH 582 0
DWIDTH 16 0
BBX 8 21 4 0
BITMAP
FE00
FE00
0E00
0E00
1E00
1C00
1C00
1C00
1C00
3C00
3800
3800
3800
3800
7800
7000
7000
7000
7800
7F00
1F00
ENDCHAR
STARTCHAR m.uni006D
ENCODING 109
SWIDTH 582 0
DWIDTH 16 0
BBX 15 15 -1 0
BITMAP
1D9C
1FFE
3DEE
39CE
39CE
39CE
3BDE
7B9C
739C
739C
739C
739C
F738
E738
E738
ENDCHAR
STARTCHAR n.uni006E
ENCODING 110
SWIDTH 582 0
DWIDTH 16 0
BBX 13 15 1 0
BITMAP
1CE0
1FF0
3E78
3C38
3838
3838
3838
7870
7070
7070
7070
7070
F0E0
E0E0
E0E0
ENDCHAR
STARTCHAR o.uni006F
ENCODING 111
SWIDTH 582 0
DWIDTH 16 0
BBX 13 15 1 0
BITMAP
07C0
1FF0
3C70
3838
7038
7038
E038
E038
E038
E070
E070
E0E0
71E0
7FC0
1F00
ENDCHAR
STARTCHAR p.uni0070
ENCODING 112
SWIDTH 582 0
DWIDTH 16 0
BBX 14 21 0 -6
BITMAP
0EF0
0FF8
0F3C
1E1C
1C1C
1C1C
1C1C
1C1C
381C
3838
3838
3870
3CF0
77E0
73C0
7000
7000
7000
F000
E000
E000
ENDCHAR
STARTCHAR q.uni0071
ENCODING 113
SWIDTH 582 0
DWIDTH 16 0
BBX 13 21 1 -6
BITMAP
0738
1FB8
3CF8
3870
7070
7070
E070
E070
E060
E060
E0E0
E0E0
F1E0
7FC0
3DC0
01C0
01C0
01C0
0380
0380
0380
ENDCHAR
STARTCHAR r.uni0072
ENCODING 114
SWIDTH 582 0
DWIDTH 16 0
BBX 13 15 3 0
BITMAP
1CF0
1FF8
3F08
3C00
3C00
3800
3800
7800
7000
7000
7000
7000
F000
E000
E000
ENDCHAR
STARTCHAR s.uni0073
ENCODING 115
SWIDTH 582 0
DWIDTH 16 0
BBX 13 15 0 0
BITMAP
03F0
0FF8
0E08
1C00
1C00
1F00
1FC0
07E0
01F0
0070
0070
0070
41E0
FFC0
3F00
ENDCHAR
STARTCHAR t.uni0074
ENCODING 116
SWIDTH 582 0
DWIDTH 16 0
BBX 12 19 3 0
BITMAP
0700
0700
0E00
0E00
FFF0
FFE0
0E00
1E00
1C00
1C00
1C00
1C00
1C00
3800
3800
3800
3800
3F80
1F80
ENDCHAR
STARTCHAR u.uni0075
ENCODING 117
SWIDTH 582 0
DWIDTH 16 0
BBX 13 15 2 0
BITMAP
3838
3838
3878
7070
7070
7070
7070
70F0
E0E0
E0E0
E0E0
E1E0
F3E0
7FC0
39C0
ENDCHAR
STARTCHAR v.uni0076
ENCODING 118
SWIDTH 582 0
DWIDTH 16 0
BBX 13 15 2 0
BITMAP
E078
E070
E0F0
70E0
71E0
71C0
73C0
7380
7780
7700
3F00
3E00
3E00
3C00
3C00
ENDCHAR
STARTCHAR w.uni0077
ENCODING 119
SWIDTH 582 0
DWIDTH 16 0
BBX 16 15 1 0
BITMAP
E007
E00E
E00E
E01E
E31C
E73C
E738
EF38
EF70
EDF0
F9F0
F9E0
71E0
71C0
71C0
ENDCHAR
STARTCHAR x.uni0078
ENCODING 120
SWIDTH 582 0
DWIDTH 16 0
BBX 16 15 -1 0
BITMAP
0E0F
0F1E
073C
07F8
03F0
03E0
01C0
01C0
03C0
07E0
0FE0
1EF0
3C70
7878
F038
ENDCHAR
STARTCHAR y.uni0079
ENCODING 121
SWIDTH 582 0
DWIDTH 16 0
BBX 16 21 -1 -6
BITMAP
1C0F
1E0E
0E1E
0E1C
0E3C
0E38
0E78
0F70
0FF0
0FE0
07E0
07C0
07C0
0780
0700
0700
0E00
1E00
1C00
7C00
F000
ENDCHAR
STARTCHAR z.uni007A
ENCODING 122
SWIDTH 582 0
DWIDTH 16 0
BBX 13 15 1 0
BITMAP
1FF8
1FF8
00F0
00F0
01E0
03C0
0780
0F00
0F00
1E00
3C00
7800
7000
FFE0
FFC0
ENDCHAR
STARTCHAR braceleft.uni007B
ENCODING 123
SWIDTH 582 0
DWIDTH 16 0
BBX 13 24 2 -3
BITMAP
0078
01F8
01C0
0380
0380
0380
0380
0780
0700
0700
0E00
7C00
FC00
1E00
0E00
0E00
0E00
0E00
1C00
1C00
1C00
1C00
1F80
0F00
ENDCHAR
STARTCHAR bar.uni007C
ENCODING 124
SWIDTH 582 0
DWIDTH 16 0
BBX 2 27 7 -6
BITMAP
C000
C000
C000
C000
C000
C000
C000
C000
C000
C000
C000
C000
C000
C000
C000
C000
C000
C000
C000
C000
C000
C000
C000
C000
C000
C000
C000
ENDCHAR
STARTCHAR braceright.uni007D
ENCODING 125
SWIDTH 582 0
DWIDTH 16 0
BBX 12 24 0 -3
BITMAP
0F80
0FC0
01C0
01C0
01C0
01C0
0380
0380
0380
0380
03C0
01F0
01F0
0380
0700
0700
0700
0E00
0E00
0E00
1E00
1C00
FC00
F000
ENDCHAR
STARTCHAR asciitilde.uni007E
ENCODING 126
SWIDTH 582 0
DWIDTH 16 0
BBX 13 4 1 6
BITMAP
3C00
FF18
C3F8
01E0
ENDCHAR
STARTCHAR nbsp.uni00A0
ENCODING 160
SWIDTH 582 0
DWIDTH 16 0
BBX 0 0 0 0
BITMAP
ENDCHAR
STARTCHAR exclamdown.uni00A1
ENCODING 161
SWIDTH 582 0
DWIDTH 16 0
BBX 7 20 5 0
BITMAP
0E00
0E00
0E00
0000
0000
0000
1C00
1C00
1800
3800
3800
3800
3800
7800
7000
7000
7000
7000
E000
E000
ENDCHAR
STARTCHAR cent.uni00A2
ENCODING 162
SWIDTH 582 0
DWIDTH 16 0
BBX 13 23 2 -4
BITMAP
0040
0040
0040
00C0
03F0
0FF8
1C90
3880
7080
7180
E100
E100
E100
E100
E300
F200
7260
3FC0
1F80
0600
0600
0400
0400
ENDCHAR
STARTCHAR sterling.uni00A3
ENCODING 163
SWIDTH 582 0
DWIDTH 16 0
BBX 15 20 0 0
BITMAP
007C
01FE
03C4
0380
0700
0700
0700
0E00
0E00
0E00
7FE0
7FE0
0E00
0E00
1C00
1C00
1C00
1C00
FFF0
FFF0
ENDCHAR
STARTCHAR currency.uni00A4
ENCODING 164
SWIDTH 582 0
DWIDTH 16 0
BBX 11 11 3 3
BITMAP
C020
EEC0
7FC0
3180
60C0
60C0
60C0
3180
7FC0
6EE0
C060
ENDCHAR
STARTCHAR yen.uni00A5
ENCODING 165
SWIDTH 582 0
DWIDTH 16 0
BBX 15 20 1 0
BITMAP
701E
383C
3838
3C78
1CF0
1CE0
1FC0
FFF8
FFF8
0F80
0700
FFF0
FFF0
0E00
0E00
0E00
0E00
0E00
1C00
1C00
ENDCHAR
STARTCHAR brokenbar.uni00A6
ENCODING 166
SWIDTH 582 0
DWIDTH 16 0
BBX 2 24 7 -5
BITMAP
C000
C000
C000
C000
C000
C000
C000
C000
C000
C000
0000
0000
0000
0000
C000
C000
C000
C000
C000
C000
C000
C000
C000
C000
ENDCHAR
STARTCHAR section.uni00A7
ENCODING 167
SWIDTH 582 0
DWIDTH 16 0
BBX 12 23 2 -3
BITMAP
07E0
1FF0
1820
3000
3000
3800
1E00
3F00
6780
C1C0
C0E0
C060
E060
70C0
3CC0
1F80
0780
0380
0180
0180
8380
FF00
7C00
ENDCHAR
STARTCHAR dieresis.uni00A8
ENCODING 168
SWIDTH 582 0
DWIDTH 16 0
BBX 8 3 6 17
BITMAP
E700
E700
E700
ENDCHAR
STARTCHAR copyright.uni00A9
ENCODING 169
SWIDTH 582 0
DWIDTH 16 0
BBX 16 16 0 2
BITMAP
07E0
1818
300C
63E6
4E12
8C01
9801
9801
9801
9801
8C01
4E12
63E6
300C
1818
07E0
ENDCHAR
STARTCHAR ordfeminine.uni00AA
ENCODING 170
SWIDTH 582 0
DWIDTH 16 0
BBX 10 13 3 7
BITMAP
0F80
11C0
00C0
00C0
1FC0
30C0
6180
6180
6180
6380
3D80
0000
FF00
ENDCHAR
STARTCHAR guillemotleft.uni00AB
ENCODING 171
SWIDTH 582 0
DWIDTH 16 0
BBX 13 12 1 2
BITMAP
0208
0618
0E38
1C60
71C0
E380
C300
6180
30C0
1860
0860
0820
ENDCHAR
STARTCHAR logicalnot.uni00AC
ENCODING 172
SWIDTH 582 0
DWIDTH 16 0
BBX 13 6 1 5
BITMAP
FFF8
FFF8
0018
0018
0018
0018
ENDCHAR
STARTCHAR hyphensoft.uni00AD
ENCODING 173
SWIDTH 582 0
DWIDTH 16 0
BBX 7 2 4 6
BITMAP
FE00
FE00
ENDCHAR
STARTCHAR registered.uni00AE
ENCODING 174
SWIDTH 582 0
DWIDTH 16 0
BBX 16 16 0 2
BITMAP
07E0
1818
300C
6FE6
4C32
8C31
8C31
8FC1
8CC1
8C61
8C71
4C32
6C3E
300C
1818
07E0
ENDCHAR
STARTCHAR macron.uni00AF
ENCODING 175
SWIDTH 582 0
DWIDTH 16 0
BBX 8 2 6 18
BITMAP
FF00
FF00
ENDCHAR
STARTCHAR degree.uni00B0
ENCODING 176
SWIDTH 582 0
DWIDTH 16 0
BBX 8 8 4 12
BITMAP
3C00
7E00
E700
C300
C300
E700
7E00
3C00
ENDCHAR
STARTCHAR plusminus.uni00B1
ENCODING 177
SWIDTH 582 0
DWIDTH 16 0
BBX 14 15 1 0
BITMAP
0300
0300
0300
0300
FFFC
FFFC
0300
0300
0300
0300
0000
0000
0000
FFFC
FFFC
ENDCHAR
STARTCHAR twosuperior.uni00B2
ENCODING 178
SWIDTH 582 0
DWIDTH 16 0
BBX 9 11 4 9
BITMAP
1F00
2180
0180
0180
0300
0600
0C00
1800
2000
4000
FE00
ENDCHAR
STARTCHAR threesuperior.uni00B3
ENCODING 179
SWIDTH 582 0
DWIDTH 16 0
BBX 9 11 4 9
BITMAP
1F00
2180
0180
0300
1C00
0700
0300
0300
0300
8600
7C00
ENDCHAR
STARTCHAR acute.uni00B4
ENCODING 180
SWIDTH 582 0
DWIDTH 16 0
BBX 7 5 7 17
BITMAP
0E00
1C00
3800
7000
E000
ENDCHAR
STARTCHAR micro.uni00B5
ENCODING 181
SWIDTH 582 0
DWIDTH 16 0
BBX 15 21 -1 -6
BITMAP
0E0E
0E0E
0E0E
1C0E
1C1E
1C1C
1C1C
1C1C
381C
381C
3838
3838
3C78
77DE
779C
7000
7000
7000
F000
E000
E000
ENDCHAR
STARTCHAR paragraph.uni00B6
ENCODING 182
SWIDTH 582 0
DWIDTH 16 0
BBX 13 23 2 -3
BITMAP
07F8
1FF8
3F98
7F98
FF90
FF30
FF30
FF30
FF30
7F20
3E60
0E60
0660
0660
0440
0CC0
0CC0
0CC0
0CC0
0880
1980
1980
1980
ENDCHAR
STARTCHAR periodcentered.uni00B7
ENCODING 183
SWIDTH 582 0
DWIDTH 16 0
BBX 3 4 6 7
BITMAP
E000
E000
E000
E000
ENDCHAR
STARTCHAR cedilla.uni00B8
ENCODING 184
SWIDTH 582 0
DWIDTH 16 0
BBX 6 5 2 -5
BITMAP
1800
0C00
8C00
FC00
F800
ENDCHAR
STARTCHAR onesuperior.uni00B9
ENCODING 185
SWIDTH 582 0
DWIDTH 16 0
BBX 7 11 4 9
BITMAP
1C00
2C00
0C00
0C00
0C00
1C00
1800
1800
1800
1800
FE00
ENDCHAR
STARTCHAR ordmasculine.uni00BA
ENCODING 186
SWIDTH 582 0
DWIDTH 16 0
BBX 11 13 3 7
BITMAP
0780
18C0
3060
3060
6060
6060
6060
60C0
60C0
3180
1F00
0000
FF80
ENDCHAR
STARTCHAR guillemotright.uni00BB
ENCODING 187
SWIDTH 582 0
DWIDTH 16 0
BBX 13 12 1 2
BITMAP
2100
3080
30C0
1860
0C30
0618
0E38
1C70
31C0
E380
C300
8200
ENDCHAR
STARTCHAR onequarter.uni00BC
ENCODING 188
SWIDTH 582 0
DWIDTH 16 0
BBX 14 25 1 -3
BITMAP
1C00
2C00
0C00
0C00
0C00
1C00
1800
1800
1800
1800
FE00
001C
01E0
1E00
E018
0038
0078
00F0
01B0
0130
0330
0630
07F8
0060
0060
ENDCHAR
STARTCHAR onehalf.uni00BD
ENCODING 189
SWIDTH 582 0
DWIDTH 16 0
BBX 14 25 1 -3
BITMAP
1C00
2C00
0C00
0C00
0C00
1C00
1800
1800
1800
1800
FE00
001C
01E0
1E00
E0F8
010C
000C
000C
0018
0030
0060
00C0
0100
0200
07F0
ENDCHAR
STARTCHAR threequarters.uni00BE
ENCODING 190
SWIDTH 582 0
DWIDTH 16 0
BBX 14 25 1 -3
BITMAP
1F00
2180
0180
0300
1C00
0700
0300
0300
0300
8600
7C00
001C
01E0
1E00
E018
0038
0078
00F0
01B0
0130
0330
0630
07F8
0060
0060
ENDCHAR
STARTCHAR questiondown.uni00BF
ENCODING 191
SWIDTH 582 0
DWIDTH 16 0
BBX 10 20 2 0
BITMAP
01C0
01C0
01C0
0000
0000
0380
0380
0380
0380
0700
0E00
1C00
3800
7000
E000
E000
E040
F0C0
7F80
3E00
ENDCHAR
STARTCHAR Agrave.uni00C0
ENCODING 192
SWIDTH 582 0
DWIDTH 16 0
BBX 15 25 -1 0
BITMAP
00E0
0060
0030
0000
0000
0078
0078
00F8
00F8
01D8
01D8
039C
039C
079C
071C
071C
0E1C
0E1C
1FFC
1FFC
381E
380E
780E
700E
F00E
ENDCHAR
STARTCHAR Aacute.uni00C1
ENCODING 193
SWIDTH 582 0
DWIDTH 16 0
BBX 15 25 -1 0
BITMAP
000C
0018
0030
0000
0000
0078
0078
00F8
00F8
01D8
01D8
039C
039C
079C
071C
071C
0E1C
0E1C
1FFC
1FFC
381E
380E
780E
700E
F00E
ENDCHAR
STARTCHAR Acircumflex.uni00C2
ENCODING 194
SWIDTH 582 0
DWIDTH 16 0
BBX 15 25 -1 0
BITMAP
0038
006C
00CC
0186
0000
0078
0078
00F8
00F8
01D8
01D8
039C
039C
079C
071C
071C
0E1C
0E1C
1FFC
1FFC
381E
380E
780E
700E
F00E
ENDCHAR
STARTCHAR Atilde.uni00C3
ENCODING 195
SWIDTH 582 0
DWIDTH 16 0
BBX 16 25 -1 0
BITMAP
0073
00FE
019C
0000
0000
0078
0078
00F8
00F8
01D8
01D8
039C
039C
079C
071C
071C
0E1C
0E1C
1FFC
1FFC
381E
380E
780E
700E
F00E
ENDCHAR
STARTCHAR Adieresis.uni00C4
ENCODING 196
SWIDTH 582 0
DWIDTH 16 0
BBX 15 25 -1 0
BITMAP
01CE
01CE
01CE
0000
0000
0078
0078
00F8
00F8
01D8
01D8
039C
039C
079C
071C
071C
0E1C
0E1C
1FFC
1FFC
381E
380E
780E
700E
F00E
ENDCHAR
STARTCHAR Aring.uni00C5
ENCODING 197
SWIDTH 582 0
DWIDTH 16 0
BBX 15 25 -1 0
BITMAP
0038
007C
00C6
00C6
00C6
007C
0078
0078
00F8
00F8
01F8
01F8
03F8
039C
079C
071C
0F1C
0E1C
1FFC
1FFC
3C1C
380E
780E
700E
F00E
ENDCHAR
STARTCHAR AE.uni00C6
ENCODING 198
SWIDTH 582 0
DWIDTH 16 0
BBX 18 20 -2 0
BITMAP
007FC000
00FFC000
00FC0000
01FC0000
01DC0000
03DC0000
03B80000
07B80000
073F0000
073F0000
0E380000
0E380000
1E700000
1FF00000
3FF00000
38700000
38700000
70F00000
70FE0000
F0FE0000
ENDCHAR
STARTCHAR Ccedilla.uni00C7
ENCODING 199
SWIDTH 582 0
DWIDTH 16 0
BBX 14 25 1 -5
BITMAP
01F8
07FC
0F0C
1C04
3C00
3800
7000
7000
7000
E000
E000
E000
E000
E000
E000
E000
F020
7860
3FE0
1F80
0600
0300
2300
3F00
3E00
ENDCHAR
STARTCHAR Egrave.uni00C8
ENCODING 200
SWIDTH 582 0
DWIDTH 16 0
BBX 15 25 1 0
BITMAP
0380
0180
00C0
0000
0000
0FFE
0FFE
1E00
1C00
1C00
1C00
1C00
3C00
3FF8
3FF8
3800
3800
7800
7000
7000
7000
7000
F000
FFF0
FFF0
ENDCHAR
STARTCHAR Eacute.uni00C9
ENCODING 201
SWIDTH 582 0
DWIDTH 16 0
BBX 15 25 1 0
BITMAP
0030
0060
00C0
0000
0000
0FFE
0FFE
1E00
1C00
1C00
1C00
1C00
3C00
3FF8
3FF8
3800
3800
7800
7000
7000
7000
7000
F000
FFF0
FFF0
ENDCHAR
STARTCHAR Ecircumflex.uni00CA
ENCODING 202
SWIDTH 582 0
DWIDTH 16 0
BBX 15 25 1 0
BITMAP
00E0
01B0
0330
0618
0000
0FFE
0FFE
1E00
1C00
1C00
1C00
1C00
3C00
3FF8
3FF8
3800
3800
7800
7000
7000
7000
7000
F000
FFF0
FFF0
ENDCHAR
STARTCHAR Edieresis.uni00CB
ENCODING 203
SWIDTH 582 0
DWIDTH 16 0
BBX 15 25 1 0
BITMAP
0738
0738
0738
0000
0000
0FFE
0FFE
1E00
1C00
1C00
1C00
1C00
3C00
3FF8
3FF8
3800
3800
7800
7000
7000
7000
7000
F000
FFF0
FFF0
ENDCHAR
STARTCHAR Igrave.uni00CC
ENCODING 204
SWIDTH 582 0
DWIDTH 16 0
BBX 14 25 1 0
BITMAP
0380
0180
00C0
0000
0000
0FFC
1FFC
01C0
01C0
01C0
01C0
0380
0380
0380
0380
0380
0780
0700
0700
0700
0700
0700
0E00
FFE0
FFC0
ENDCHAR
STARTCHAR Iacute.uni00CD
ENCODING 205
SWIDTH 582 0
DWIDTH 16 0
BBX 14 25 1 0
BITMAP
0030
0060
00C0
0000
0000
0FFC
1FFC
01C0
01C0
01C0
01C0
0380
0380
0380
0380
0380
0780
0700
0700
0700
0700
0700
0E00
FFE0
FFC0
ENDCHAR
STARTCHAR Icircumflex.uni00CE
ENCODING 206
SWIDTH 582 0
DWIDTH 16 0
BBX 14 25 1 0
BITMAP
00E0
01B0
0330
0618
0000
0FFC
1FFC
01C0
01C0
01C0
01C0
0380
0380
0380
0380
0380
0780
0700
0700
0700
0700
0700
0E00
FFE0
FFC0
ENDCHAR
STARTCHAR Idieresis.uni00CF
ENCODING 207
SWIDTH 582 0
DWIDTH 16 0
BBX 14 25 1 0
BITMAP
0738
0738
0738
0000
0000
0FFC
1FFC
01C0
01C0
01C0
01C0
0380
0380
0380
0380
0380
0780
0700
0700
0700
0700
0700
0E00
FFE0
FFC0
ENDCHAR
STARTCHAR Eth.uni00D0
ENCODING 208
SWIDTH 582 0
DWIDTH 16 0
BBX 14 20 0 0
BITMAP
0FC0
0FF0
0E78
1C38
1C1C
1C1C
1C1C
1C1C
381C
FF1C
FF1C
3838
3838
7038
7038
7070
70E0
71E0
FFC0
FF00
ENDCHAR
STARTCHAR Ntilde.uni00D1
ENCODING 209
SWIDTH 582 0
DWIDTH 16 0
BBX 16 25 0 0
BITMAP
00E6
01FC
0338
0000
0000
0E07
0E07
1F0F
1F0E
1F0E
1F0E
1F0E
3F9E
399C
399C
399C
399C
79FC
70F8
70F8
70F8
70F8
F0F8
E070
E070
ENDCHAR
STARTCHAR Ograve.uni00D2
ENCODING 210
SWIDTH 582 0
DWIDTH 16 0
BBX 14 25 1 0
BITMAP
0380
0180
00C0
0000
0000
03E0
0FF8
1E38
1C1C
381C
381C
701C
701C
701C
F01C
E03C
E038
E038
E038
E070
E070
E0E0
71E0
7FC0
1F00
ENDCHAR
STARTCHAR Oacute.uni00D3
ENCODING 211
SWIDTH 582 0
DWIDTH 16 0
BBX 14 25 1 0
BITMAP
0030
0060
00C0
0000
0000
03E0
0FF8
1E38
1C1C
381C
381C
701C
701C
701C
F01C
E03C
E038
E038
E038
E070
E070
E0E0
71E0
7FC0
1F00
ENDCHAR
STARTCHAR Ocircumflex.uni00D4
ENCODING 212
SWIDTH 582 0
DWIDTH 16 0
BBX 14 25 1 0
BITMAP
00E0
01B0
0330
0618
0000
03E0
0FF8
1E38
1C1C
381C
381C
701C
701C
701C
F01C
E03C
E038
E038
E038
E070
E070
E0E0
71E0
7FC0
1F00
ENDCHAR
STARTCHAR Otilde.uni00D5
ENCODING 213
SWIDTH 582 0
DWIDTH 16 0
BBX 14 25 1 0
BITMAP
01CC
03F8
0670
0000
0000
03E0
0FF8
1E38
1C1C
381C
381C
701C
701C
701C
F01C
E03C
E038
E038
E038
E070
E070
E0E0
71E0
7FC0
1F00
ENDCHAR
STARTCHAR Odieresis.uni00D6
ENCODING 214
SWIDTH 582 0
DWIDTH 16 0
BBX 14 25 1 0
BITMAP
0738
0738
0738
0000
0000
03E0
0FF8
1E38
1C1C
381C
381C
701C
701C
701C
F01C
E03C
E038
E038
E038
E070
E070
E0E0
71E0
7FC0
1F00
ENDCHAR
STARTCHAR multiply.uni00D7
ENCODING 215
SWIDTH 582 0
DWIDTH 16 0
BBX 12 12 2 3
BITMAP
4020
E070
70E0
39C0
1F80
0F00
0F00
1F80
39C0
70E0
E070
4020
ENDCHAR
STARTCHAR Oslash.uni00D8
ENCODING 216
SWIDTH 582 0
DWIDTH 16 0
BBX 15 21 0 0
BITMAP
01F6
07FE
0F1C
0E1E
1C1E
1C3E
386E
384E
38CE
798E
719E
731C
761C
761C
7C38
7838
7870
38F0
7FE0
CF80
4000
ENDCHAR
STARTCHAR Ugrave.uni00D9
ENCODING 217
SWIDTH 582 0
DWIDTH 16 0
BBX 15 25 1 0
BITMAP
0380
0180
00C0
0000
0000
1C0E
1C0E
1C0E
3C1C
381C
381C
381C
381C
703C
7038
7038
7038
F038
E078
E070
E070
E070
F0E0
7FC0
1F00
ENDCHAR
STARTCHAR Uacute.uni00DA
ENCODING 218
SWIDTH 582 0
DWIDTH 16 0
BBX 15 25 1 0
BITMAP
0030
0060
00C0
0000
0000
1C0E
1C0E
1C0E
3C1C
381C
381C
381C
381C
703C
7038
7038
7038
F038
E078
E070
E070
E070
F0E0
7FC0
1F00
ENDCHAR
STARTCHAR Ucircumflex.uni00DB
ENCODING 219
SWIDTH 582 0
DWIDTH 16 0
BBX 15 25 1 0
BITMAP
00E0
01B0
0330
0618
0000
1C0E
1C0E
1C0E
3C1C
381C
381C
381C
381C
703C
7038
7038
7038
F038
E078
E070
E070
E070
F0E0
7FC0
1F00
ENDCHAR
STARTCHAR Udieresis.uni00DC
ENCODING 220
SWIDTH 582 0
DWIDTH 16 0
BBX 15 25 1 0
BITMAP
0738
0738
0738
0000
0000
1C0E
1C0E
1C0E
3C1C
381C
381C
381C
381C
703C
7038
7038
7038
F038
E078
E070
E070
E070
F0E0
7FC0
1F00
ENDCHAR
STARTCHAR Yacute.uni00DD
ENCODING 221
SWIDTH 582 0
DWIDTH 16 0
BBX 14 25 3 0
BITMAP
00C0
0180
0300
0000
0000
E03C
7078
7070
70F0
39E0
39C0
3FC0
1F80
1F00
1F00
0E00
0E00
0E00
1E00
1C00
1C00
1C00
1C00
3800
3800
ENDCHAR
STARTCHAR Thorn.uni00DE
ENCODING 222
SWIDTH 582 0
DWIDTH 16 0
BBX 14 20 1 0
BITMAP
0E00
0E00
1E00
1C00
1FE0
1FF8
1C3C
3C1C
381C
381C
381C
3838
7878
7FF0
7FC0
7000
7000
F000
E000
E000
ENDCHAR
STARTCHAR germandbls.uni00DF
ENCODING 223
SWIDTH 582 0
DWIDTH 16 0
BBX 14 21 1 0
BITMAP
03F0
07F8
0E3C
1C1C
1C1C
1C38
3CF0
39C0
3B80
3B80
3BE0
39F0
78F8
7078
7038
7038
7038
7038
F070
FFE0
EFC0
ENDCHAR
STARTCHAR agrave.uni00E0
ENCODING 224
SWIDTH 582 0
DWIDTH 16 0
BBX 13 22 1 0
BITMAP
0700
0300
0180
0180
00C0
0000
0000
07E0
1FF0
1078
0038
0038
0038
0FF8
3FF0
7070
E070
E0F0
E0E0
F1E0
7EE0
3CE0
ENDCHAR
STARTCHAR aacute.uni00E1
ENCODING 225
SWIDTH 582 0
DWIDTH 16 0
BBX 13 22 1 0
BITMAP
0038
0070
00E0
01C0
0380
0000
0000
07E0
1FF0
1078
0038
0038
0038
0FF8
3FF0
7070
E070
E0F0
E0E0
F1E0
7EE0
3CE0
ENDCHAR
STARTCHAR acircumflex.uni00E2
ENCODING 226
SWIDTH 582 0
DWIDTH 16 0
BBX 13 22 1 0
BITMAP
00C0
01E0
0360
0620
0C30
0000
0000
07E0
1FF0
1078
0038
0038
0038
0FF8
3FF0
7070
E070
E0F0
E0E0
F1E0
7EE0
3CE0
ENDCHAR
STARTCHAR atilde.uni00E3
ENCODING 227
SWIDTH 582 0
DWIDTH 16 0
BBX 13 21 1 0
BITMAP
0718
0798
0CF0
0C70
0000
0000
07E0
1FF0
1078
0038
0038
0038
0FF8
3FF0
7070
E070
E0F0
E0E0
F1E0
7EE0
3CE0
ENDCHAR
STARTCHAR adieresis.uni00E4
ENCODING 228
SWIDTH 582 0
DWIDTH 16 0
BBX 13 20 1 0
BITMAP
0738
0738
0738
0000
0000
07E0
1FF0
1078
0038
0038
0038
0FF8
3FF0
7070
E070
E0F0
E0E0
F1E0
7EE0
3CE0
ENDCHAR
STARTCHAR aring.uni00E5
ENCODING 229
SWIDTH 582 0
DWIDTH 16 0
BBX 13 24 1 0
BITMAP
01C0
03E0
0630
0630
0630
03E0
01C0
0000
0000
07E0
1FF0
1078
0038
0038
0038
0FF8
3FF0
7070
E070
E0F0
E0E0
F1E0
7EE0
3CE0
ENDCHAR
STARTCHAR ae.uni00E6
ENCODING 230
SWIDTH 582 0
DWIDTH 16 0
BBX 16 15 -1 0
BITMAP
073C
1FFE
13C7
03C7
0387
0387
1FFE
3FFE
7380
E380
E780
E780
E784
7EFC
3C78
ENDCHAR
STARTCHAR ccedilla.uni00E7
ENCODING 231
SWIDTH 582 0
DWIDTH 16 0
BBX 12 20 2 -5
BITMAP
07E0
1FF0
3C10
3800
7000
7000
E000
E000
E000
E000
E000
E000
70C0
7F80
1F00
0600
0300
2300
3F00
3E00
ENDCHAR
STARTCHAR egrave.uni00E8
ENCODING 232
SWIDTH 582 0
DWIDTH 16 0
BBX 13 22 1 0
BITMAP
0700
0300
0180
0180
00C0
0000
0000
07C0
0FF0
1C70
3838
7038
7038
FFF8
FFF8
E000
E000
E000
E020
70C0
7FC0
1F00
ENDCHAR
STARTCHAR eacute.uni00E9
ENCODING 233
SWIDTH 582 0
DWIDTH 16 0
BBX 13 22 1 0
BITMAP
0038
0070
00E0
01C0
0380
0000
0000
07C0
0FF0
1C70
3838
7038
7038
FFF8
FFF8
E000
E000
E000
E020
70C0
7FC0
1F00
ENDCHAR
STARTCHAR ecircumflex.uni00EA
ENCODING 234
SWIDTH 582 0
DWIDTH 16 0
BBX 13 22 1 0
BITMAP
00C0
01E0
0360
0620
0C30
0000
0000
07C0
0FF0
1C70
3838
7038
7038
FFF8
FFF8
E000
E000
E000
E020
70C0
7FC0
1F00
ENDCHAR
STARTCHAR edieresis.uni00EB
ENCODING 235
SWIDTH 582 0
DWIDTH 16 0
BBX 13 20 1 0
BITMAP
0738
0738
0738
0000
0000
07C0
0FF0
1C70
3838
7038
7038
FFF8
FFF8
E000
E000
E000
E020
70C0
7FC0
1F00
ENDCHAR
STARTCHAR igrave.uni00EC
ENCODING 236
SWIDTH 582 0
DWIDTH 16 0
BBX 13 22 1 0
BITMAP
0700
0300
0180
0180
00C0
0000
0000
0FC0
0FC0
01C0
0380
0380
0380
0380
0380
0380
0780
0700
0700
0700
FFF8
FFF8
ENDCHAR
STARTCHAR iacute.uni00ED
ENCODING 237
SWIDTH 582 0
DWIDTH 16 0
BBX 13 22 1 0
BITMAP
0038
0070
00E0
01C0
0380
0000
0000
0FC0
0FC0
01C0
0380
0380
0380
0380
0380
0380
0780
0700
0700
0700
FFF8
FFF8
ENDCHAR
STARTCHAR icircumflex.uni00EE
ENCODING 238
SWIDTH 582 0
DWIDTH 16 0
BBX 13 22 1 0
BITMAP
00C0
01E0
0360
0620
0C30
0000
0000
0FC0
0FC0
01C0
0380
0380
0380
0380
0380
0380
0780
0700
0700
0700
FFF8
FFF8
ENDCHAR
STARTCHAR idieresis.uni00EF
ENCODING 239
SWIDTH 582 0
DWIDTH 16 0
BBX 13 20 1 0
BITMAP
0738
0738
0738
0000
0000
0FC0
0FC0
01C0
0380
0380
0380
0380
0380
0380
0780
0700
0700
0700
FFF8
FFF8
ENDCHAR
STARTCHAR eth.uni00F0
ENCODING 240
SWIDTH 582 0
DWIDTH 16 0
BBX 13 21 2 0
BITMAP
0F00
0718
03F8
03C0
0FC0
09E0
00F0
07F0
1FF0
3C38
7838
7038
7038
E038
E038
E070
E070
E0E0
71E0
7FC0
1F00
ENDCHAR
STARTCHAR ntilde.uni00F1
ENCODING 241
SWIDTH 582 0
DWIDTH 16 0
BBX 13 21 1 0
BITMAP
0718
0798
0CF0
0C70
0000
0000
1CE0
1FF0
3E78
3C38
3838
3838
3838
7870
7070
7070
7070
7070
F0E0
E0E0
E0E0
ENDCHAR
STARTCHAR ograve.uni00F2
ENCODING 242
SWIDTH 582 0
DWIDTH 16 0
BBX 13 22 1 0
BITMAP
0700
0300
0180
0180
00C0
0000
0000
07C0
1FF0
3C70
3838
7038
7038
E038
E038
E038
E070
E070
E0E0
71E0
7FC0
1F00
ENDCHAR
STARTCHAR oacute.uni00F3
ENCODING 243
SWIDTH 582 0
DWIDTH 16 0
BBX 13 22 1 0
BITMAP
0038
0070
00E0
01C0
0380
0000
0000
07C0
1FF0
3C70
3838
7038
7038
E038
E038
E038
E070
E070
E0E0
71E0
7FC0
1F00
ENDCHAR
STARTCHAR ocircumflex.uni00F4
ENCODING 244
SWIDTH 582 0
DWIDTH 16 0
BBX 13 22 1 0
BITMAP
00C0
01E0
0360
0620
0C30
0000
0000
07C0
1FF0
3C70
3838
7038
7038
E038
E038
E038
E070
E070
E0E0
71E0
7FC0
1F00
ENDCHAR
STARTCHAR otilde.uni00F5
ENCODING 245
SWIDTH 582 0
DWIDTH 16 0
BBX 13 21 1 0
BITMAP
0718
0798
0CF0
0C70
0000
0000
07C0
1FF0
3C70
3838
7038
7038
E038
E038
E038
E070
E070
E0E0
71E0
7FC0
1F00
ENDCHAR
STARTCHAR odieresis.uni00F6
ENCODING 246
SWIDTH 582 0
DWIDTH 16 0
BBX 13 20 1 0
BITMAP
0738
0738
0738
0000
0000
07C0
1FF0
3C70
3838
7038
7038
E038
E038
E038
E070
E070
E0E0
71E0
7FC0
1F00
ENDCHAR
STARTCHAR divide.uni00F7
ENCODING 247
SWIDTH 582 0
DWIDTH 16 0
BBX 13 12 1 2
BITMAP
0700
0700
0700
0000
0000
FFF8
FFF8
0000
0000
0700
0700
0700
ENDCHAR
STARTCHAR oslash.uni00F8
ENCODING 248
SWIDTH 582 0
DWIDTH 16 0
BBX 14 17 1 -1
BITMAP
0004
03EC
0FFC
1E38
1C3C
387C
38DC
719C
711C
731C
7638
7C38
7870
38F0
7FE0
EF80
4000
ENDCHAR
STARTCHAR ugrave.uni00F9
ENCODING 249
SWIDTH 582 0
DWIDTH 16 0
BBX 13 22 2 0
BITMAP
0E00
0600
0300
0300
0180
0000
0000
3838
3838
3878
7070
7070
7070
7070
70F0
E0E0
E0E0
E0E0
E1E0
F3E0
7FC0
39C0
ENDCHAR
STARTCHAR uacute.uni00FA
ENCODING 250
SWIDTH 582 0
DWIDTH 16 0
BBX 13 22 2 0
BITMAP
0070
00E0
01C0
0380
0700
0000
0000
3838
3838
3878
7070
7070
7070
7070
70F0
E0E0
E0E0
E0E0
E1E0
F3E0
7FC0
39C0
ENDCHAR
STARTCHAR ucircumflex.uni00FB
ENCODING 251
SWIDTH 582 0
DWIDTH 16 0
BBX 13 22 2 0
BITMAP
0180
03C0
06C0
0C40
1860
0000
0000
3838
3838
3878
7070
7070
7070
7070
70F0
E0E0
E0E0
E0E0
E1E0
F3E0
7FC0
39C0
ENDCHAR
STARTCHAR udieresis.uni00FC
ENCODING 252
SWIDTH 582 0
DWIDTH 16 0
BBX 13 20 2 0
BITMAP
0E70
0E70
0E70
0000
0000
3838
3838
3878
7070
7070
7070
7070
70F0
E0E0
E0E0
E0E0
E1E0
F3E0
7FC0
39C0
ENDCHAR
STARTCHAR yacute.uni00FD
ENCODING 253
SWIDTH 582 0
DWIDTH 16 0
BBX 16 28 -1 -6
BITMAP
000E
001C
0038
0070
00E0
0000
0000
1C0F
1E0E
0E1E
0E1C
0E3C
0E38
0E78
0F70
0FF0
0FE0
07E0
07C0
07C0
0780
0700
0700
0E00
1E00
1C00
7C00
F000
ENDCHAR
STARTCHAR thorn.uni00FE
ENCODING 254
SWIDTH 582 0
DWIDTH 16 0
BBX 14 27 0 -6
BITMAP
0700
0700
0700
0E00
0E00
0E00
0EF0
0FF8
1E3C
1E1C
1C1C
1C1C
1C1C
3C1C
381C
3838
3838
3870
3CF0
77E0
7380
7000
7000
7000
F000
E000
E000
ENDCHAR
STARTCHAR ydieresis.uni00FF
ENCODING 255
SWIDTH 582 0
DWIDTH 16 0
BBX 16 26 -1 -6
BITMAP
01CE
01CE
01CE
0000
0000
1C0F
1E0E
0E1E
0E1C
0E3C
0E38
0E78
0F70
0FF0
0FE0
07E0
07C0
07C0
0780
0700
0700
0E00
1E00
1C00
7C00
F000
ENDCHAR
STARTCHAR Cacute.uni0106
ENCODING 262
SWIDTH 582 0
DWIDTH 16 0
BBX 14 25 1 0
BITMAP
0018
0030
0060
0000
0000
01F8
07FC
0F0C
1C04
3C00
3800
7000
7000
7000
E000
E000
E000
E000
E000
E000
E000
F020
7860
3FE0
1F80
ENDCHAR
STARTCHAR cacute.uni0107
ENCODING 263
SWIDTH 582 0
DWIDTH 16 0
BBX 13 22 2 0
BITMAP
0038
0070
00E0
01C0
0380
0000
0000
07E0
1FF0
3C10
3800
7000
7000
E000
E000
E000
E000
E000
E000
70C0
7F80
1F00
ENDCHAR
STARTCHAR Ccaron.uni010C
ENCODING 268
SWIDTH 582 0
DWIDTH 16 0
BBX 15 25 1 0
BITMAP
0186
00CC
00D8
0070
0000
01F8
07FC
0F0C
1C04
3C00
3800
7000
7000
7000
E000
E000
E000
E000
E000
E000
E000
F020
7860
3FE0
1F80
ENDCHAR
STARTCHAR ccaron.uni010D
ENCODING 269
SWIDTH 582 0
DWIDTH 16 0
BBX 13 22 2 0
BITMAP
0618
0230
0360
03C0
0180
0000
0000
07E0
1FF0
3C10
3800
7000
7000
E000
E000
E000
E000
E000
E000
70C0
7F80
1F00
ENDCHAR
STARTCHAR dcroat.uni0111
ENCODING 273
SWIDTH 582 0
DWIDTH 16 0
BBX 16 21 2 0
BITMAP
001C
003C
0038
07FF
0FFF
0038
0E38
1FF0
3CF0
38F0
7070
70F0
E0F0
E0E0
E0E0
E0E0
E0E0
E1E0
F3C0
7FC0
3DC0
ENDCHAR
STARTCHAR Gbreve.uni011E
ENCODING 286
SWIDTH 582 0
DWIDTH 16 0
BBX 14 25 1 0
BITMAP
030C
0398
01F8
00F0
0000
01F8
07FC
0F0C
1C04
3800
3800
7000
7000
7000
F000
E0F8
E0F8
E078
E070
E070
E070
F070
78F0
3FE0
1F80
ENDCHAR
STARTCHAR gbreve.uni011F
ENCODING 287
SWIDTH 582 0
DWIDTH 16 0
BBX 13 27 1 -6
BITMAP
0618
0638
07F0
03E0
0000
0000
0738
1FB8
3CF8
3870
7070
7070
E070
E070
E0F0
E0E0
E0E0
E1E0
F1E0
7EE0
3DE0
01C0
01C0
03C0
8380
FF00
7E00
ENDCHAR
STARTCHAR Idotaccent.uni0130
ENCODING 304
SWIDTH 582 0
DWIDTH 16 0
BBX 14 25 1 0
BITMAP
00E0
00E0
00E0
0000
0000
0FFC
1FFC
01C0
01C0
01C0
01C0
0380
0380
0380
0380
0380
0780
0700
0700
0700
0700
0700
0E00
FFE0
FFC0
ENDCHAR
STARTCHAR dotlessi.uni0131
ENCODING 305
SWIDTH 582 0
DWIDTH 16 0
BBX 13 15 1 0
BITMAP
0FC0
0FC0
01C0
0380
0380
0380
0380
0380
0380
0780
0700
0700
0700
FFF8
FFF8
ENDCHAR
STARTCHAR Lslash.uni0141
ENCODING 321
SWIDTH 582 0
DWIDTH 16 0
BBX 13 20 0 0
BITMAP
0700
0700
0700
0E00
0E00
0E40
0EC0
0F80
1F00
1E00
1C00
7C00
FC00
B800
3800
3800
3800
3800
7FF8
7FF8
ENDCHAR
STARTCHAR lslash.uni0142
ENCODING 322
SWIDTH 582 0
DWIDTH 16 0
BBX 13 21 1 0
BITMAP
1FC0
1FC0
01C0
01C0
03C0
0398
03B0
03E0
03C0
0780
0F00
1F00
7700
E700
0F00
0E00
0E00
0E00
0F00
0FE0
03E0
ENDCHAR
STARTCHAR OE.uni0152
ENCODING 338
SWIDTH 582 0
DWIDTH 16 0
BBX 17 20 0 0
BITMAP
03FF8000
0FFF8000
1E380000
1C380000
38700000
38700000
70700000
70700000
707E0000
70FE0000
E0E00000
E0E00000
E0E00000
E0E00000
E0E00000
E1C00000
E1C00000
71C00000
7FFC0000
1FFC0000
ENDCHAR
STARTCHAR oe.uni0153
ENCODING 339
SWIDTH 582 0
DWIDTH 16 0
BBX 16 15 0 0
BITMAP
0F3E
1FFE
39E7
70E7
70E7
70E7
71FE
E1FE
E1C0
E1C0
E1C0
E3C0
E3C8
7FF8
3CF0
ENDCHAR
STARTCHAR Scedilla.uni015E
ENCODING 350
SWIDTH 582 0
DWIDTH 16 0
BBX 14 25 0 -5
BITMAP
03F8
07FC
1E0C
1C04
3800
3800
3800
3C00
1F80
0FE0
03F0
00F8
0038
0038
0038
0038
8070
E0F0
FFC0
7F00
0600
0300
2300
3F00
3E00
ENDCHAR
STARTCHAR scedilla.uni015F
ENCODING 351
SWIDTH 582 0
DWIDTH 16 0
BBX 13 20 0 -5
BITMAP
03F0
0FF8
0E08
1C00
1C00
1F00
1FC0
07E0
01F0
0070
0070
0070
41E0
FFC0
3F00
0600
0300
2300
3F00
3E00
ENDCHAR
STARTCHAR Scaron.uni0160
ENCODING 352
SWIDTH 582 0
DWIDTH 16 0
BBX 15 25 0 0
BITMAP
0186
00CC
00D8
0070
0000
03F8
07FC
1E0C
1C04
3800
3800
3800
3C00
1F80
0FE0
03F0
00F8
0038
0038
0038
0038
8070
E0F0
FFC0
7F00
ENDCHAR
STARTCHAR scaron.uni0161
ENCODING 353
SWIDTH 582 0
DWIDTH 16 0
BBX 14 22 0 0
BITMAP
030C
0118
01B0
01E0
00C0
0000
0000
03F0
0FF8
0E08
1C00
1C00
1F00
1FC0
07E0
01F0
0070
0070
0070
41E0
FFC0
3F00
ENDCHAR
STARTCHAR Ydieresis.uni0178
ENCODING 376
SWIDTH 582 0
DWIDTH 16 0
BBX 14 25 3 0
BITMAP
1CE0
1CE0
1CE0
0000
0000
E03C
7078
7070
70F0
39E0
39C0
3FC0
1F80
1F00
1F00
0E00
0E00
0E00
1E00
1C00
1C00
1C00
1C00
3800
3800
ENDCHAR
STARTCHAR Zcaron.uni017D
ENCODING 381
SWIDTH 582 0
DWIDTH 16 0
BBX 16 25 0 0
BITMAP
0186
00CC
00D8
0070
0000
0FFF
0FFF
000E
001E
003C
0078
0070
00F0
01E0
03C0
03C0
0780
0F00
0E00
1E00
3C00
7800
7000
FFF8
FFF8
ENDCHAR
STARTCHAR zcaron.uni017E
ENCODING 382
SWIDTH 582 0
DWIDTH 16 0
BBX 13 22 1 0
BITMAP
0618
0230
0360
03C0
0180
0000
0000
1FF8
1FF8
00F0
00F0
01E0
03C0
0780
0F00
0F00
1E00
3C00
7800
7000
FFE0
FFC0
ENDCHAR
STARTCHAR florin.uni0192
ENCODING 402
SWIDTH 582 0
DWIDTH 16 0
BBX 15 27 0 -6
BITMAP
001C
007E
0070
00E0
00E0
00E0
00E0
00E0
01C0
01C0
0FF8
0FF8
01C0
01C0
01C0
0380
0380
0380
0380
0380
0380
0700
0700
0700
8E00
FE00
7800
ENDCHAR
STARTCHAR circumflex.uni02C6
ENCODING 710
SWIDTH 582 0
DWIDTH 16 0
BBX 8 5 5 17
BITMAP
0C00
1E00
3600
6200
C300
ENDCHAR
STARTCHAR caron.uni02C7
ENCODING 711
SWIDTH 582 0
DWIDTH 16 0
BBX 8 5 6 17
BITMAP
C300
4600
6C00
7800
3000
ENDCHAR
STARTCHAR breve.uni02D8
ENCODING 728
SWIDTH 582 0
DWIDTH 16 0
BBX 8 4 6 17
BITMAP
C300
C700
FE00
7C00
ENDCHAR
STARTCHAR dotaccent.uni02D9
ENCODING 729
SWIDTH 582 0
DWIDTH 16 0
BBX 3 3 8 17
BITMAP
E000
E000
E000
ENDCHAR
STARTCHAR ring.uni02DA
ENCODING 730
SWIDTH 582 0
DWIDTH 16 0
BBX 7 7 6 17
BITMAP
3800
7C00
C600
C600
C600
7C00
3800
ENDCHAR
STARTCHAR ogonek.uni02DB
ENCODING 731
SWIDTH 582 0
DWIDTH 16 0
BBX 5 5 3 -5
BITMAP
2000
4000
C000
F800
7800
ENDCHAR
STARTCHAR tilde.uni02DC
ENCODING 732
SWIDTH 582 0
DWIDTH 16 0
BBX 9 4 5 17
BITMAP
7180
7980
CF00
C700
ENDCHAR
STARTCHAR hungarumlaut.uni02DD
ENCODING 733
SWIDTH 582 0
DWIDTH 16 0
BBX 11 5 6 17
BITMAP
1CE0
39C0
3180
6300
C600
ENDCHAR
STARTCHAR uni03A9.uni03A9
ENCODING 937
SWIDTH 582 0
DWIDTH 16 0
BBX 15 19 1 0
BITMAP
01F0
07F8
0FFC
1E1C
1C0C
380E
380E
380E
700E
700E
700E
700C
301C
3818
3838
3838
1CF0
FCFC
FCFC
ENDCHAR
STARTCHAR pi.uni03C0
ENCODING 960
SWIDTH 582 0
DWIDTH 16 0
BBX 15 15 3 0
BITMAP
7FFE
7FFC
FFFC
3870
3870
3870
3870
70E0
70E0
70E0
70E0
70E0
70E0
E0F0
E070
ENDCHAR
STARTCHAR endash.uni2013
ENCODING 8211
SWIDTH 582 0
DWIDTH 16 0
BBX 10 2 3 6
BITMAP
FFC0
FFC0
ENDCHAR
STARTCHAR emdash.uni2014
ENCODING 8212
SWIDTH 582 0
DWIDTH 16 0
BBX 14 2 1 6
BITMAP
FFFC
FFFC
ENDCHAR
STARTCHAR quoteleft.uni2018
ENCODING 8216
SWIDTH 582 0
DWIDTH 16 0
BBX 5 8 6 13
BITMAP
1800
3000
3000
7000
E000
E000
E000
E000
ENDCHAR
STARTCHAR quoteright.uni2019
ENCODING 8217
SWIDTH 582 0
DWIDTH 16 0
BBX 5 8 7 13
BITMAP
3800
3800
3800
3800
7000
6000
6000
C000
ENDCHAR
STARTCHAR quotesinglbase.uni201A
ENCODING 8218
SWIDTH 582 0
DWIDTH 16 0
BBX 5 8 3 -4
BITMAP
3800
3800
3800
3800
7000
6000
6000
C000
ENDCHAR
STARTCHAR quotedblleft.uni201C
ENCODING 8220
SWIDTH 582 0
DWIDTH 16 0
BBX 11 8 3 13
BITMAP
1860
30C0
30C0
71C0
E380
E380
E380
E380
ENDCHAR
STARTCHAR quotedblright.uni201D
ENCODING 8221
SWIDTH 582 0
DWIDTH 16 0
BBX 11 8 4 13
BITMAP
38E0
38E0
38E0
38E0
71C0
6180
6180
C300
ENDCHAR
STARTCHAR quotedblbase.uni201E
ENCODING 8222
SWIDTH 582 0
DWIDTH 16 0
BBX 11 8 1 -4
BITMAP
38E0
38E0
38E0
38E0
71C0
6180
6180
C300
ENDCHAR
STARTCHAR dagger.uni2020
ENCODING 8224
SWIDTH 582 0
DWIDTH 16 0
BBX 12 23 2 -3
BITMAP
0380
0380
0380
0380
0380
0700
7FF0
FFF0
0700
0700
0E00
0E00
0E00
0E00
0E00
1E00
1C00
1C00
1C00
1C00
3C00
3800
3800
ENDCHAR
STARTCHAR daggerdbl.uni2021
ENCODING 8225
SWIDTH 582 0
DWIDTH 16 0
BBX 13 23 1 -3
BITMAP
01C0
01C0
01C0
01C0
01C0
0380
3FF8
7FF8
0380
0380
0700
0700
0700
0700
0700
FFE0
FFE0
0E00
0E00
0E00
1E00
1C00
1C00
ENDCHAR
STARTCHAR bullet.uni2022
ENCODING 8226
SWIDTH 582 0
DWIDTH 16 0
BBX 8 8 4 6
BITMAP
3C00
7E00
FF00
FF00
FF00
FF00
7E00
3C00
ENDCHAR
STARTCHAR ellipsis.uni2026
ENCODING 8230
SWIDTH 582 0
DWIDTH 16 0
BBX 13 4 -1 0
BITMAP
E738
E738
E738
E738
ENDCHAR
STARTCHAR perthousand.uni2030
ENCODING 8240
SWIDTH 582 0
DWIDTH 16 0
BBX 15 20 0 0
BITMAP
3800
7C00
EE00
C600
C600
EE1C
7C70
39C0
0700
1C00
7000
0000
1C38
3E7C
77EE
63C6
63C6
77EE
3E7C
1C38
ENDCHAR
STARTCHAR guilsinglleft.uni2039
ENCODING 8249
SWIDTH 582 0
DWIDTH 16 0
BBX 7 12 4 2
BITMAP
0200
0600
0E00
1C00
7000
E000
C000
6000
3000
1800
1800
0800
ENDCHAR
STARTCHAR guilsinglright.uni203A
ENCODING 8250
SWIDTH 582 0
DWIDTH 16 0
BBX 7 12 4 2
BITMAP
2000
3000
3000
1800
0C00
0600
0E00
1C00
7000
E000
C000
8000
ENDCHAR
STARTCHAR Euro.uni20AC
ENCODING 8364
SWIDTH 582 0
DWIDTH 16 0
BBX 15 20 0 0
BITMAP
00FC
01FE
0386
0702
0E00
0E00
1C00
7FF0
7FE0
3800
3800
7FC0
FFC0
3800
3800
3800
3C08
1E30
0FF0
07E0
ENDCHAR
STARTCHAR trademark.uni2122
ENCODING 8482
SWIDTH 582 0
DWIDTH 16 0
BBX 14 8 0 12
BITMAP
FB0C
230C
2294
2294
2264
2264
2204
2204
ENDCHAR
STARTCHAR partialdiff.uni2202
ENCODING 8706
SWIDTH 582 0
DWIDTH 16 0
BBX 11 17 2 0
BITMAP
0F00
1F80
18C0
0040
0060
0060
1E60
3160
60E0
E0E0
C0E0
C0C0
C0C0
C1C0
4180
6300
1E00
ENDCHAR
STARTCHAR Delta.uni2206
ENCODING 8710
SWIDTH 582 0
DWIDTH 16 0
BBX 16 19 0 0
BITMAP
0380
03C0
03C0
07E0
07E0
07E0
0FF0
0E70
0E70
1C78
1C38
1C38
381C
381C
381C
700E
700E
7FFE
FFFF
ENDCHAR
STARTCHAR product.uni03A0
ENCODING 928
SWIDTH 582 0
DWIDTH 16 0
BBX 16 20 1 0
BITMAP
0FFF
0FFF
1E0F
1C0E
1C0E
1C0E
1C0E
3C1E
381C
381C
381C
381C
783C
7038
7038
7038
7038
F078
E070
E070
ENDCHAR
STARTCHAR summation.uni2211
ENCODING 8721
SWIDTH 582 0
DWIDTH 16 0
BBX 12 26 2 -6
BITMAP
FFF0
FFF0
6000
6000
3000
1800
1800
0C00
0600
0600
0300
0300
0180
0380
0300
0600
0600
0C00
0C00
1800
3000
3000
6000
6000
FFF0
FFF0
ENDCHAR
STARTCHAR minus.uni2212
ENCODING 8722
SWIDTH 582 0
DWIDTH 16 0
BBX 12 3 2 9
BITMAP
FFF0
FFF0
FFF0
ENDCHAR
STARTCHAR slashdiv.uni2215
ENCODING 8725
SWIDTH 582 0
DWIDTH 16 0
BBX 13 22 0 -2
BITMAP
0018
0038
0030
0070
0060
00E0
00C0
01C0
0180
0380
0300
0700
0600
0E00
0C00
1C00
1800
3800
3000
7000
6000
E000
ENDCHAR
STARTCHAR bulletop.uni2219
ENCODING 8729
SWIDTH 582 0
DWIDTH 16 0
BBX 3 4 6 7
BITMAP
E000
E000
E000
E000
ENDCHAR
STARTCHAR radical.uni221A
ENCODING 8730
SWIDTH 582 0
DWIDTH 16 0
BBX 14 23 1 0
BITMAP
000C
000C
0018
0018
0018
0010
0030
0030
0020
0060
0060
F060
F0C0
10C0
18C0
1880
1980
0980
0D00
0F00
0700
0600
0600
ENDCHAR
STARTCHAR infinity.uni221E
ENCODING 8734
SWIDTH 582 0
DWIDTH 16 0
BBX 15 10 1 3
BITMAP
3838
7EFC
66CC
C386
C386
C386
C386
66CC
7EFC
3838
ENDCHAR
STARTCHAR integral.uni222B
ENCODING 8747
SWIDTH 582 0
DWIDTH 16 0
BBX 13 25 2 -4
BITMAP
00F0
01B8
01B8
0380
0300
0300
0700
0700
0700
0700
0700
0700
0700
0700
0700
0700
0700
0700
0700
0600
0600
0E00
EC00
EC00
7800
ENDCHAR
STARTCHAR approxequal.uni2248
ENCODING 8776
SWIDTH 582 0
DWIDTH 16 0
BBX 13 9 1 4
BITMAP
3C00
FF18
C3F8
01E0
0000
3C00
FF18
C3F8
01E0
ENDCHAR
STARTCHAR notequal.uni2260
ENCODING 8800
SWIDTH 582 0
DWIDTH 16 0
BBX 13 15 1 1
BITMAP
0010
0030
0070
00E0
FFF8
FFF8
0380
0700
0E00
FFF8
FFF8
3800
7000
6000
4000
ENDCHAR
STARTCHAR lessequal.uni2264
ENCODING 8804
SWIDTH 582 0
DWIDTH 16 0
BBX 13 14 1 0
BITMAP
0018
0078
03F8
1FC0
FC00
E000
FC00
1FC0
03F8
0078
0008
0000
FFF8
FFF8
ENDCHAR
STARTCHAR greaterequal.uni2265
ENCODING 8805
SWIDTH 582 0
DWIDTH 16 0
BBX 13 14 1 0
BITMAP
8000
F000
FE00
1FC0
01F8
0038
01F8
1FC0
FE00
F000
8000
0000
FFF8
FFF8
ENDCHAR
STARTCHAR fi.uniFB01
ENCODING 64257
SWIDTH 582 0
DWIDTH 16 0
BBX 16 21 1 0
BITMAP
03C7
0FCF
0E0E
1E00
1C00
1C00
FFF8
FFF8
1C78
3870
3870
3870
3870
78F0
70E0
70E0
70E0
70E0
F1E0
E1C0
E1C0
ENDCHAR
STARTCHAR fl.uniFB02
ENCODING 64258
SWIDTH 582 0
DWIDTH 16 0
BBX 15 21 1 0
BITMAP
03FE
07FE
0E1E
0E1C
1C1C
1C1C
FF9C
FFBC
1C38
3838
3838
3838
3838
7870
7070
7070
7070
7070
F0E0
E0E0
E0E0
ENDCHAR
STARTCHAR y-hat.uni0177
ENCODING 375
SWIDTH 466 0
DWIDTH 16 0
BBX 16 28 -1 -6
BITMAP
0030
0078
00D8
0188
030C
0000
0000
1C0F
1E0E
0E1E
0E1C
0E3C
0E38
0E78
0F70
0FF0
0FE0
07E0
07C0
07C0
0780
0700
0700
0E00
1E00
1C00
7C00
F000
ENDCHAR
STARTCHAR y-bar.uni0233
ENCODING 563
SWIDTH 466 0
DWIDTH 16 0
BBX 16 26 -1 -6
BITMAP
03FE
03FE
0000
0000
0000
1C0F
1E0E
0E1E
0E1C
0E3C
0E38
0E78
0F70
0FF0
0FE0
07E0
07C0
07C0
0780
0700
0700
0E00
1E00
1C00
7C00
F000
ENDCHAR
STARTCHAR xsuperior.uni02E3
ENCODING 739
SWIDTH 740 0
DWIDTH 16 0
BBX 12 11 3 9
BITMAP
3870
18E0
1DC0
0D80
0700
0700
0F00
1B00
3B80
7180
E1C0
ENDCHAR
STARTCHAR x-hat.uni0302
ENCODING 770
SWIDTH 466 0
DWIDTH 16 0
BBX 16 22 -1 0
BITMAP
0030
0078
00D8
0188
030C
0000
0000
0E0F
0F1E
073C
07F8
03F0
03E0
01C0
01C0
03C0
07E0
0FE0
1EF0
3C70
7878
F038
ENDCHAR
STARTCHAR x-bar.uni0304
ENCODING 772
SWIDTH 466 0
DWIDTH 16 0
BBX 16 20 -1 0
BITMAP
03FF
03FF
0000
0000
0000
0E0F
0F1E
073C
07F8
03F0
03E0
01C0
01C0
03C0
07E0
0FE0
1EF0
3C70
7878
F038
ENDCHAR
STARTCHAR Sigma.uni03A3
ENCODING 931
SWIDTH 466 0
DWIDTH 16 0
BBX 16 20 1 0
BITMAP
0FFF
0FFE
0FFE
0700
0380
01C0
01C0
00E0
0070
0038
0070
00E0
03C0
0780
0E00
1C00
3800
7FFC
FFF8
FFF8
ENDCHAR
STARTCHAR theta.uni03B8
ENCODING 952
SWIDTH 740 0
DWIDTH 16 0
BBX 14 20 1 0
BITMAP
03E0
0FF8
1E38
1C1C
381C
381C
701C
701C
701C
FFFC
FFFC
E038
E038
E038
E070
E070
E0E0
71E0
7FC0
1F00
ENDCHAR
STARTCHAR mu.uni03BC
ENCODING 956
SWIDTH 466 0
DWIDTH 16 0
BBX 15 21 -1 -6
BITMAP
0E0E
0E0E
0E0E
1C0E
1C1E
1C1C
1C1C
1C1C
381C
381C
3838
3838
3C78
77DE
779C
7000
7000
7000
F000
E000
E000
ENDCHAR
STARTCHAR sigma.uni03C3
ENCODING 963
SWIDTH 740 0
DWIDTH 16 0
BBX 15 15 1 0
BITMAP
07FE
1FFE
3CE0
3870
7070
7038
E038
E038
E038
E038
E070
E070
71E0
7FC0
1F00
ENDCHAR
STARTCHAR exponent.uni1D07
ENCODING 7431
SWIDTH 466 0
DWIDTH 16 0
BBX 13 15 2 0
BITMAP
1FF8
1FF8
3800
3800
3800
3800
3FE0
3FE0
7000
7000
7000
7000
7000
FFC0
FFC0
ENDCHAR
STARTCHAR arrowleft.uni2190
ENCODING 8592
SWIDTH 466 0
DWIDTH 16 0
BBX 15 14 0 0
BITMAP
0300
0700
0E00
1E00
3C00
7C00
FFFE
FFFE
7C00
3C00
1E00
0E00
0700
0300
ENDCHAR
STARTCHAR arrowup.uni2191
ENCODING 8593
SWIDTH 466 0
DWIDTH 16 0
BBX 14 26 0 -6
BITMAP
0300
0780
0FC0
1FE0
3FF0
7FF8
F33C
C30C
0300
0300
0300
0300
0300
0300
0300
0300
0300
0300
0300
0300
0300
0300
0300
0300
0300
0300
ENDCHAR
STARTCHAR arrowright.uni2192
ENCODING 8594
SWIDTH 466 0
DWIDTH 16 0
BBX 15 14 0 0
BITMAP
0180
01C0
00E0
00F0
0078
007C
FFFE
FFFE
007C
0078
00F0
00E0
01C0
0180
ENDCHAR
STARTCHAR arrowdown.uni2193
ENCODING 8595
SWIDTH 466 0
DWIDTH 16 0
BBX 14 26 0 -6
BITMAP
0300
0300
0300
0300
0300
0300
0300
0300
0300
0300
0300
0300
0300
0300
0300
0300
0300
0300
C30C
F33C
7FF8
3FF0
1FE0
0FC0
0780
0300
ENDCHAR
STARTCHAR uparrtipleft.uni21B0
ENCODING 8624
SWIDTH 740 0
DWIDTH 16 0
BBX 11 21 1 0
BITMAP
0C00
1C00
3800
7800
FF80
FFC0
78E0
3860
1C60
0C60
0060
0060
0060
0060
0060
0060
0060
0060
0060
0060
0060
ENDCHAR
STARTCHAR upaartipright.uni21B1
ENCODING 8625
SWIDTH 740 0
DWIDTH 16 0
BBX 11 21 3 0
BITMAP
0600
0700
0380
03C0
3FE0
7FE0
E3C0
C380
C700
C600
C000
C000
C000
C000
C000
C000
C000
C000
C000
C000
C000
ENDCHAR
STARTCHAR carriagereturn.uni21B5
ENCODING 8629
SWIDTH 740 0
DWIDTH 16 0
BBX 14 17 0 1
BITMAP
000C
000C
000C
000C
000C
000C
000C
0C0C
1C0C
380C
780C
FFFC
FFFC
7800
3800
1C00
0C00
ENDCHAR
STARTCHAR mesangle.uni2221
ENCODING 8737
SWIDTH 466 0
DWIDTH 16 0
BBX 15 19 0 1
BITMAP
0030
0030
0070
0060
00E0
01C0
0180
0380
0300
0700
0780
0FC0
1CE0
1860
3830
3030
7030
7FFE
FFFE
ENDCHAR
STARTCHAR eqminus.uni23BB
ENCODING 9147
SWIDTH 740 0
DWIDTH 16 0
BBX 12 3 2 14
BITMAP
FFF0
FFF0
FFF0
ENDCHAR
STARTCHAR lf.uni240A
ENCODING 9226
SWIDTH 466 0
DWIDTH 16 0
BBX 14 22 0 -1
BITMAP
C000
C000
C000
C000
C000
C000
C000
C000
C000
F800
F800
01FC
01FC
0180
0180
0180
01F8
01F8
0180
0180
0180
0180
ENDCHAR
STARTCHAR escape.uni241B
ENCODING 9243
SWIDTH 466 0
DWIDTH 16 0
BBX 15 25 0 -4
BITMAP
F800
C000
C000
C000
F800
C000
C000
C780
ECC0
0C00
0C00
0600
0180
00C0
00C0
0CC0
079C
0026
0062
0060
0060
0060
0062
0026
001C
ENDCHAR
STARTCHAR bdlvr.uni251C
ENCODING 9500
SWIDTH 466 0
DWIDTH 16 0
BBX 9 25 3 -4
BITMAP
C000
C000
C000
C000
C000
C000
C000
C000
C000
C000
C000
C000
FF80
FF80
C000
C000
C000
C000
C000
C000
C000
C000
C000
C000
C000
ENDCHAR
STARTCHAR block.uni2588
ENCODING 9608
SWIDTH 740 0
DWIDTH 16 0
BBX 15 29 0 -5
BITMAP
FFFE
FFFE
FFFE
FFFE
FFFE
FFFE
FFFE
FFFE
FFFE
FFFE
FFFE
FFFE
FFFE
FFFE
FFFE
FFFE
FFFE
FFFE
FFFE
FFFE
FFFE
FFFE
FFFE
FFFE
FFFE
FFFE
FFFE
FFFE
FFFE
ENDCHAR
STARTCHAR shade.uni2592
ENCODING 9618
SWIDTH 740 0
DWIDTH 16 0
BBX 15 29 0 -5
BITMAP
5554
0000
AAAA
0000
5554
0000
AAAA
0000
5554
0000
AAAA
0000
5554
0000
AAAA
0000
5554
0000
AAAA
0000
5554
0000
AAAA
0000
5554
0000
AAAA
0000
5554
ENDCHAR
STARTCHAR filledbox.uni25A0
ENCODING 9632
SWIDTH 466 0
DWIDTH 16 0
BBX 10 12 2 2
BITMAP
FFC0
FFC0
FFC0
FFC0
FFC0
FFC0
FFC0
FFC0
FFC0
FFC0
FFC0
FFC0
ENDCHAR
STARTCHAR triagup.uni25B2
ENCODING 9650
SWIDTH 466 0
DWIDTH 16 0
BBX 15 15 0 0
BITMAP
0100
0100
0380
0380
07C0
07C0
0FE0
0FE0
1FF0
1FF0
3FF8
3FF8
7FFC
7FFC
FFFE
ENDCHAR
STARTCHAR triagright.uni25B6
ENCODING 9654
SWIDTH 466 0
DWIDTH 16 0
BBX 15 15 0 0
BITMAP
8000
E000
F800
FE00
FF80
FFE0
FFF8
FFFE
FFF8
FFE0
FF80
FE00
F800
E000
8000
ENDCHAR
STARTCHAR triagdn.uni25BC
ENCODING 9660
SWIDTH 466 0
DWIDTH 16 0
BBX 15 15 0 0
BITMAP
FFFE
7FFC
7FFC
3FF8
3FF8
1FF0
1FF0
0FE0
0FE0
07C0
07C0
0380
0380
0100
0100
ENDCHAR
STARTCHAR lozenge.uni25CA
ENCODING 9674
SWIDTH 466 0
DWIDTH 16 0
BBX 13 27 1 -5
BITMAP
0200
0200
0700
0500
0D80
0880
18C0
1040
3060
2020
6030
4010
C018
8008
C018
4010
6030
2020
3060
1040
18C0
0880
0D80
0500
0700
0200
0200
ENDCHAR
STARTCHAR boldparleft.uni27EA
ENCODING 10218
SWIDTH 740 0
DWIDTH 16 0
BBX 11 24 3 -3
BITMAP
01E0
03C0
0780
0F80
1F00
1F00
3E00
3E00
7C00
7C00
7C00
F800
F800
F800
F800
F800
F800
F800
F800
7800
7800
7C00
3C00
3C00
ENDCHAR
STARTCHAR boldparright.uni27EB
ENCODING 10219
SWIDTH 740 0
DWIDTH 16 0
BBX 11 24 2 -3
BITMAP
0780
0780
07C0
07C0
03C0
03E0
03E0
03E0
03E0
03E0
03E0
03E0
07E0
07C0
07C0
07C0
0F80
0F80
1F00
1F00
3E00
3C00
7800
F000
ENDCHAR
STARTCHAR triagleft.uni25C0
ENCODING 9664
SWIDTH 466 0
DWIDTH 16 0
BBX 15 15 0 0
BITMAP
0002
000E
003E
00FE
03FE
0FFE
3FFE
FFFE
3FFE
0FFE
03FE
00FE
003E
000E
0002
ENDCHAR
STARTCHAR germandblS.uni1E9E
ENCODING 7838
SWIDTH 582 0
DWIDTH 16 0
BBX 15 21 1 0
BITMAP
01FE
07FE
0F1C
0C1C
1C38
1C78
3870
38E0
38E0
39C0
3BE0
39F0
78F8
7078
7038
7038
7038
7038
F070
FFE0
EFC0
ENDCHAR
STARTCHAR Gamma.uni0393
ENCODING 915
SWIDTH 582 0
DWIDTH 16 0
BBX 16 20 1 0
BITMAP
0FFF
0FFF
1E00
1C00
1C00
1C00
1C00
3C00
3800
3800
3800
3800
7800
7000
7000
7000
7000
F000
E000
E000
ENDCHAR
ENDFONT
